# Blender v2.76 (sub 0) OBJ File: 'sphere_mapping.blend'
# www.blender.org
o Sphere_Sphere.001
v -0.382683 0.923880 0.000000
v -0.707107 0.707107 0.000000
v -0.923880 0.382683 0.000000
v -1.000000 -0.000000 0.000000
v -0.923880 -0.382684 0.000000
v -0.707107 -0.707107 0.000000
v -0.382683 -0.923880 0.000000
v -0.000000 -1.000000 0.000000
v -0.353553 0.923880 -0.146447
v -0.653281 0.707107 -0.270598
v -0.853553 0.382683 -0.353553
v -0.923880 -0.000000 -0.382683
v -0.853553 -0.382684 -0.353553
v -0.653281 -0.707107 -0.270598
v -0.353553 -0.923880 -0.146447
v -0.270598 0.923880 -0.270598
v -0.500000 0.707107 -0.500000
v -0.653281 0.382683 -0.653281
v -0.707107 -0.000000 -0.707107
v -0.653281 -0.382684 -0.653281
v -0.500000 -0.707107 -0.500000
v -0.270598 -0.923880 -0.270598
v -0.146447 0.923880 -0.353553
v -0.270598 0.707107 -0.653281
v -0.353553 0.382683 -0.853553
v -0.382683 -0.000000 -0.923879
v -0.353553 -0.382684 -0.853553
v -0.270598 -0.707107 -0.653281
v -0.146447 -0.923880 -0.353553
v -0.000000 0.923880 -0.382683
v -0.000000 0.707107 -0.707107
v -0.000000 0.382683 -0.923879
v -0.000000 -0.000000 -1.000000
v -0.000000 -0.382684 -0.923879
v -0.000000 -0.707107 -0.707107
v -0.000000 -0.923880 -0.382683
v -0.000000 1.000000 0.000000
v 0.146446 0.923880 -0.353553
v 0.270598 0.707107 -0.653281
v 0.353553 0.382683 -0.853553
v 0.382683 -0.000000 -0.923879
v 0.353553 -0.382684 -0.853553
v 0.270598 -0.707107 -0.653281
v 0.146446 -0.923880 -0.353553
v 0.270598 0.923880 -0.270598
v 0.500000 0.707107 -0.500000
v 0.653281 0.382683 -0.653281
v 0.707107 -0.000000 -0.707106
v 0.653281 -0.382684 -0.653281
v 0.500000 -0.707107 -0.500000
v 0.270598 -0.923880 -0.270598
v 0.353553 0.923880 -0.146446
v 0.653281 0.707107 -0.270598
v 0.853553 0.382683 -0.353553
v 0.923879 -0.000000 -0.382683
v 0.853553 -0.382684 -0.353553
v 0.653281 -0.707107 -0.270598
v 0.353553 -0.923880 -0.146446
v 0.382683 0.923880 0.000000
v 0.707106 0.707107 0.000000
v 0.923879 0.382683 0.000000
v 1.000000 -0.000000 0.000000
v 0.923879 -0.382684 0.000000
v 0.707106 -0.707107 0.000000
v 0.382683 -0.923880 0.000000
v 0.353553 0.923880 0.146447
v 0.653281 0.707107 0.270598
v 0.853553 0.382683 0.353554
v 0.923879 -0.000000 0.382684
v 0.853553 -0.382684 0.353554
v 0.653281 -0.707107 0.270598
v 0.353553 -0.923880 0.146447
v 0.270598 0.923880 0.270598
v 0.499999 0.707107 0.500000
v 0.653281 0.382683 0.653282
v 0.707106 -0.000000 0.707107
v 0.653281 -0.382684 0.653282
v 0.499999 -0.707107 0.500000
v 0.270598 -0.923880 0.270598
v 0.146446 0.923880 0.353553
v 0.270597 0.707107 0.653281
v 0.353553 0.382683 0.853553
v 0.382683 -0.000000 0.923879
v 0.353553 -0.382684 0.853553
v 0.270597 -0.707107 0.653281
v 0.146446 -0.923880 0.353553
v -0.000000 0.923880 0.382683
v -0.000000 0.707107 0.707106
v -0.000001 0.382683 0.923879
v -0.000001 -0.000000 1.000000
v -0.000001 -0.382684 0.923879
v -0.000000 -0.707107 0.707106
v -0.000000 -0.923880 0.382683
v -0.146447 0.923880 0.353553
v -0.270598 0.707107 0.653281
v -0.353554 0.382683 0.853553
v -0.382684 -0.000000 0.923879
v -0.353554 -0.382684 0.853553
v -0.270598 -0.707107 0.653281
v -0.146447 -0.923880 0.353553
v -0.270598 0.923880 0.270598
v -0.500000 0.707107 0.499999
v -0.653282 0.382683 0.653281
v -0.707107 -0.000000 0.707106
v -0.653282 -0.382684 0.653281
v -0.500000 -0.707107 0.499999
v -0.270598 -0.923880 0.270598
v -0.353553 0.923880 0.146446
v -0.653281 0.707107 0.270598
v -0.853553 0.382683 0.353553
v -0.923880 -0.000000 0.382683
v -0.853553 -0.382684 0.353553
v -0.653281 -0.707107 0.270598
v -0.353553 -0.923880 0.146446
vt 0.250000 0.259307
vt 0.250000 0.368635
vt 0.187500 0.368635
vt 0.187500 0.259307
vt 0.250000 0.439905
vt 0.250000 0.500000
vt 0.187500 0.500000
vt 0.187500 0.439905
vt 0.250000 0.560095
vt 0.250000 0.631365
vt 0.187500 0.631365
vt 0.187500 0.560095
vt 0.250000 0.740693
vt 0.187500 0.740693
vt 0.125000 0.631365
vt 0.125000 0.560095
vt 0.125000 0.439905
vt 0.125000 0.368635
vt 0.125000 0.500000
vt 0.125000 0.740693
vt 0.125000 0.259307
vt 0.062500 0.439905
vt 0.062500 0.368635
vt 0.062500 0.560095
vt 0.062500 0.500000
vt 0.062500 0.740693
vt 0.062500 0.631365
vt 0.062500 0.259307
vt 0.000000 0.740693
vt 0.000000 0.631365
vt 0.000000 0.368635
vt 0.000000 0.259307
vt 0.000000 0.500000
vt 0.000000 0.439905
vt 0.000000 0.560095
vt 1.000000 0.259307
vt 1.000000 0.368635
vt 0.937500 0.368635
vt 0.937500 0.259307
vt 1.000000 0.439905
vt 1.000000 0.500000
vt 0.937500 0.500000
vt 0.937500 0.439905
vt 1.000000 0.560095
vt 1.000000 0.631365
vt 0.937500 0.631365
vt 0.937500 0.560095
vt 1.000000 0.740693
vt 0.937500 0.740693
vt 0.875000 0.439905
vt 0.875000 0.368635
vt 0.875000 0.560095
vt 0.875000 0.500000
vt 0.875000 0.740693
vt 0.875000 0.631365
vt 0.875000 0.259307
vt 0.812500 0.439905
vt 0.812500 0.368635
vt 0.812500 0.560095
vt 0.812500 0.500000
vt 0.812500 0.740693
vt 0.812500 0.631365
vt 0.812500 0.259307
vt 0.750000 0.368635
vt 0.750000 0.259307
vt 0.750000 0.500000
vt 0.750000 0.439905
vt 0.750000 0.631365
vt 0.750000 0.560095
vt 0.750000 0.740693
vt 0.687500 0.500000
vt 0.687500 0.439905
vt 0.687500 0.631365
vt 0.687500 0.560095
vt 0.687500 0.368635
vt 0.687500 0.740693
vt 0.687500 0.259307
vt 0.625000 0.439905
vt 0.625000 0.368635
vt 0.625000 0.560095
vt 0.625000 0.500000
vt 0.625000 0.740693
vt 0.625000 0.631365
vt 0.625000 0.259307
vt 0.562500 0.560095
vt 0.562500 0.500000
vt 0.562500 0.740693
vt 0.562500 0.631365
vt 0.562500 0.368635
vt 0.562500 0.259307
vt 0.562500 0.439905
vt 0.500000 0.368635
vt 0.500000 0.259307
vt 0.500000 0.500000
vt 0.500000 0.439905
vt 0.500000 0.631365
vt 0.500000 0.560095
vt 0.500000 0.740693
vt 0.437500 0.631365
vt 0.437500 0.560095
vt 0.437500 0.439905
vt 0.437500 0.368635
vt 0.437500 0.500000
vt 0.437500 0.740693
vt 0.437500 0.259307
vt 0.375000 0.439905
vt 0.375000 0.368635
vt 0.375000 0.560095
vt 0.375000 0.500000
vt 0.375000 0.740693
vt 0.375000 0.631365
vt 0.375000 0.259307
vt 0.312500 0.740693
vt 0.312500 0.631365
vt 0.312500 0.368635
vt 0.312500 0.259307
vt 0.312500 0.500000
vt 0.312500 0.439905
vt 0.312500 0.560095
vt 0.014458 0.780713
vt 0.077250 0.822669
vt 0.003182 0.807936
vt 0.229904 0.822669
vt 0.167112 0.864625
vt 0.155836 0.837402
vt 0.003182 0.837402
vt 0.155836 0.807936
vt 0.167112 0.780713
vt 0.014458 0.864625
vt 0.035294 0.885461
vt 0.187948 0.759877
vt 0.062517 0.896737
vt 0.215171 0.748601
vt 0.091983 0.896737
vt 0.244637 0.748601
vt 0.119206 0.885461
vt 0.271860 0.759877
vt 0.140042 0.864625
vt 0.292696 0.780713
vt 0.151318 0.837402
vt 0.303972 0.807936
vt 0.303972 0.837402
vt 0.151318 0.807936
vt 0.140042 0.780713
vt 0.292696 0.864625
vt 0.119206 0.759877
vt 0.271860 0.885461
vt 0.091983 0.748601
vt 0.244637 0.896737
vt 0.215171 0.896737
vt 0.062517 0.748601
vt 0.035294 0.759877
vt 0.187948 0.885461
vn -0.552200 -0.826400 -0.109800
vn -0.962600 -0.191500 -0.191500
vn -0.820300 0.548100 -0.163200
vn -0.820300 -0.548100 -0.163200
vn -0.962600 0.191500 -0.191500
vn -0.552200 0.826400 -0.109800
vn -0.695400 0.548100 -0.464700
vn -0.695400 -0.548100 -0.464700
vn -0.816100 0.191500 -0.545300
vn -0.468100 0.826400 -0.312800
vn -0.468100 -0.826400 -0.312800
vn -0.816100 -0.191500 -0.545300
vn -0.464700 -0.548100 -0.695400
vn -0.545300 0.191500 -0.816100
vn -0.312800 0.826400 -0.468100
vn -0.312800 -0.826400 -0.468100
vn -0.545300 -0.191500 -0.816100
vn -0.464700 0.548100 -0.695400
vn -0.109800 0.826400 -0.552200
vn -0.109800 -0.826400 -0.552200
vn -0.191500 -0.191500 -0.962600
vn -0.163200 0.548100 -0.820300
vn -0.163200 -0.548100 -0.820300
vn -0.191500 0.191500 -0.962600
vn 0.109800 -0.826400 -0.552200
vn 0.191500 -0.191500 -0.962600
vn 0.163200 0.548100 -0.820300
vn 0.163200 -0.548100 -0.820300
vn 0.191500 0.191500 -0.962600
vn 0.109800 0.826400 -0.552200
vn 0.464700 -0.548100 -0.695400
vn 0.545300 0.191500 -0.816100
vn 0.312800 0.826400 -0.468100
vn 0.312800 -0.826400 -0.468100
vn 0.545300 -0.191500 -0.816100
vn 0.464700 0.548100 -0.695400
vn 0.695400 -0.548100 -0.464700
vn 0.816100 0.191500 -0.545300
vn 0.468100 0.826400 -0.312800
vn 0.468100 -0.826400 -0.312800
vn 0.816100 -0.191500 -0.545300
vn 0.695400 0.548100 -0.464700
vn 0.552200 -0.826400 -0.109800
vn 0.962600 -0.191500 -0.191500
vn 0.820300 0.548100 -0.163200
vn 0.820300 -0.548100 -0.163200
vn 0.962600 0.191500 -0.191500
vn 0.552200 0.826400 -0.109800
vn 0.962600 -0.191500 0.191500
vn 0.820300 0.548100 0.163200
vn 0.820300 -0.548100 0.163200
vn 0.962600 0.191500 0.191500
vn 0.552200 0.826400 0.109800
vn 0.552200 -0.826400 0.109800
vn 0.695400 -0.548100 0.464700
vn 0.816100 0.191500 0.545300
vn 0.468100 0.826400 0.312800
vn 0.468100 -0.826400 0.312800
vn 0.816100 -0.191500 0.545300
vn 0.695400 0.548100 0.464700
vn 0.545300 0.191500 0.816100
vn 0.312800 0.826400 0.468100
vn 0.312800 -0.826400 0.468100
vn 0.545300 -0.191500 0.816100
vn 0.464700 0.548100 0.695400
vn 0.464700 -0.548100 0.695400
vn 0.109800 -0.826400 0.552200
vn 0.191500 -0.191500 0.962600
vn 0.163200 0.548100 0.820300
vn 0.163200 -0.548100 0.820300
vn 0.191500 0.191500 0.962600
vn 0.109800 0.826400 0.552200
vn -0.163200 0.548100 0.820300
vn -0.163200 -0.548100 0.820300
vn -0.191500 0.191500 0.962600
vn -0.109800 0.826400 0.552200
vn -0.109800 -0.826400 0.552200
vn -0.191500 -0.191500 0.962600
vn -0.464700 -0.548100 0.695400
vn -0.545300 0.191500 0.816100
vn -0.312800 0.826400 0.468100
vn -0.312800 -0.826400 0.468100
vn -0.545300 -0.191500 0.816100
vn -0.464700 0.548100 0.695400
vn -0.468100 0.826400 0.312800
vn -0.468100 -0.826400 0.312800
vn -0.816100 -0.191500 0.545300
vn -0.695400 0.548100 0.464700
vn -0.695400 -0.548100 0.464700
vn -0.816100 0.191500 0.545300
vn -0.194900 0.980000 -0.038800
vn -0.194900 -0.980000 -0.038800
vn -0.165300 0.980000 -0.110400
vn -0.165300 -0.980000 -0.110400
vn -0.110400 -0.980000 -0.165300
vn -0.110400 0.980000 -0.165300
vn -0.038800 0.980000 -0.194900
vn -0.038800 -0.980000 -0.194900
vn 0.038800 0.980000 -0.194900
vn 0.038800 -0.980000 -0.194900
vn 0.110400 0.980000 -0.165300
vn 0.110400 -0.980000 -0.165300
vn 0.165300 0.980000 -0.110400
vn 0.165300 -0.980000 -0.110400
vn 0.194900 0.980000 -0.038800
vn 0.194900 -0.980000 -0.038800
vn 0.194900 0.980000 0.038800
vn 0.194900 -0.980000 0.038800
vn 0.165300 -0.980000 0.110400
vn 0.165300 0.980000 0.110400
vn 0.110400 0.980000 0.165300
vn 0.110400 -0.980000 0.165300
vn 0.038800 0.980000 0.194900
vn 0.038800 -0.980000 0.194900
vn -0.038800 0.980000 0.194900
vn -0.038800 -0.980000 0.194900
vn -0.110400 -0.980000 0.165300
vn -0.110400 0.980000 0.165300
vn -0.165300 0.980000 0.110400
vn -0.165300 -0.980000 0.110400
vn -0.552200 -0.826400 0.109800
vn -0.962600 -0.191500 0.191500
vn -0.820300 0.548100 0.163200
vn -0.194900 0.980000 0.038800
vn -0.194900 -0.980000 0.038800
vn -0.820300 -0.548100 0.163200
vn -0.962600 0.191500 0.191500
vn -0.552200 0.826400 0.109800
s off
f 7/1/1 6/2/1 14/3/1 15/4/1
f 5/5/2 4/6/2 12/7/2 13/8/2
f 3/9/3 2/10/3 10/11/3 11/12/3
f 6/2/4 5/5/4 13/8/4 14/3/4
f 4/6/5 3/9/5 11/12/5 12/7/5
f 2/10/6 1/13/6 9/14/6 10/11/6
f 11/12/7 10/11/7 17/15/7 18/16/7
f 14/3/8 13/8/8 20/17/8 21/18/8
f 12/7/9 11/12/9 18/16/9 19/19/9
f 10/11/10 9/14/10 16/20/10 17/15/10
f 15/4/11 14/3/11 21/18/11 22/21/11
f 13/8/12 12/7/12 19/19/12 20/17/12
f 21/18/13 20/17/13 27/22/13 28/23/13
f 19/19/14 18/16/14 25/24/14 26/25/14
f 17/15/15 16/20/15 23/26/15 24/27/15
f 22/21/16 21/18/16 28/23/16 29/28/16
f 20/17/17 19/19/17 26/25/17 27/22/17
f 18/16/18 17/15/18 24/27/18 25/24/18
f 24/27/19 23/26/19 30/29/19 31/30/19
f 29/28/20 28/23/20 35/31/20 36/32/20
f 27/22/21 26/25/21 33/33/21 34/34/21
f 25/24/22 24/27/22 31/30/22 32/35/22
f 28/23/23 27/22/23 34/34/23 35/31/23
f 26/25/24 25/24/24 32/35/24 33/33/24
f 36/36/25 35/37/25 43/38/25 44/39/25
f 34/40/26 33/41/26 41/42/26 42/43/26
f 32/44/27 31/45/27 39/46/27 40/47/27
f 35/37/28 34/40/28 42/43/28 43/38/28
f 33/41/29 32/44/29 40/47/29 41/42/29
f 31/45/30 30/48/30 38/49/30 39/46/30
f 43/38/31 42/43/31 49/50/31 50/51/31
f 41/42/32 40/47/32 47/52/32 48/53/32
f 39/46/33 38/49/33 45/54/33 46/55/33
f 44/39/34 43/38/34 50/51/34 51/56/34
f 42/43/35 41/42/35 48/53/35 49/50/35
f 40/47/36 39/46/36 46/55/36 47/52/36
f 50/51/37 49/50/37 56/57/37 57/58/37
f 48/53/38 47/52/38 54/59/38 55/60/38
f 46/55/39 45/54/39 52/61/39 53/62/39
f 51/56/40 50/51/40 57/58/40 58/63/40
f 49/50/41 48/53/41 55/60/41 56/57/41
f 47/52/42 46/55/42 53/62/42 54/59/42
f 58/63/43 57/58/43 64/64/43 65/65/43
f 56/57/44 55/60/44 62/66/44 63/67/44
f 54/59/45 53/62/45 60/68/45 61/69/45
f 57/58/46 56/57/46 63/67/46 64/64/46
f 55/60/47 54/59/47 61/69/47 62/66/47
f 53/62/48 52/61/48 59/70/48 60/68/48
f 63/67/49 62/66/49 69/71/49 70/72/49
f 61/69/50 60/68/50 67/73/50 68/74/50
f 64/64/51 63/67/51 70/72/51 71/75/51
f 62/66/52 61/69/52 68/74/52 69/71/52
f 60/68/53 59/70/53 66/76/53 67/73/53
f 65/65/54 64/64/54 71/75/54 72/77/54
f 71/75/55 70/72/55 77/78/55 78/79/55
f 69/71/56 68/74/56 75/80/56 76/81/56
f 67/73/57 66/76/57 73/82/57 74/83/57
f 72/77/58 71/75/58 78/79/58 79/84/58
f 70/72/59 69/71/59 76/81/59 77/78/59
f 68/74/60 67/73/60 74/83/60 75/80/60
f 76/81/61 75/80/61 82/85/61 83/86/61
f 74/83/62 73/82/62 80/87/62 81/88/62
f 79/84/63 78/79/63 85/89/63 86/90/63
f 77/78/64 76/81/64 83/86/64 84/91/64
f 75/80/65 74/83/65 81/88/65 82/85/65
f 78/79/66 77/78/66 84/91/66 85/89/66
f 86/90/67 85/89/67 92/92/67 93/93/67
f 84/91/68 83/86/68 90/94/68 91/95/68
f 82/85/69 81/88/69 88/96/69 89/97/69
f 85/89/70 84/91/70 91/95/70 92/92/70
f 83/86/71 82/85/71 89/97/71 90/94/71
f 81/88/72 80/87/72 87/98/72 88/96/72
f 89/97/73 88/96/73 95/99/73 96/100/73
f 92/92/74 91/95/74 98/101/74 99/102/74
f 90/94/75 89/97/75 96/100/75 97/103/75
f 88/96/76 87/98/76 94/104/76 95/99/76
f 93/93/77 92/92/77 99/102/77 100/105/77
f 91/95/78 90/94/78 97/103/78 98/101/78
f 99/102/79 98/101/79 105/106/79 106/107/79
f 97/103/80 96/100/80 103/108/80 104/109/80
f 95/99/81 94/104/81 101/110/81 102/111/81
f 100/105/82 99/102/82 106/107/82 107/112/82
f 98/101/83 97/103/83 104/109/83 105/106/83
f 96/100/84 95/99/84 102/111/84 103/108/84
f 102/111/85 101/110/85 108/113/85 109/114/85
f 107/112/86 106/107/86 113/115/86 114/116/86
f 105/106/87 104/109/87 111/117/87 112/118/87
f 103/108/88 102/111/88 109/114/88 110/119/88
f 106/107/89 105/106/89 112/118/89 113/115/89
f 104/109/90 103/108/90 110/119/90 111/117/90
f 1/120/91 37/121/91 9/122/91
f 8/123/92 7/124/92 15/125/92
f 9/122/93 37/121/93 16/126/93
f 8/123/94 15/125/94 22/127/94
f 8/123/95 22/127/95 29/128/95
f 16/126/96 37/121/96 23/129/96
f 23/129/97 37/121/97 30/130/97
f 8/123/98 29/128/98 36/131/98
f 30/130/99 37/121/99 38/132/99
f 8/123/100 36/131/100 44/133/100
f 38/132/101 37/121/101 45/134/101
f 8/123/102 44/133/102 51/135/102
f 45/134/103 37/121/103 52/136/103
f 8/123/104 51/135/104 58/137/104
f 52/136/105 37/121/105 59/138/105
f 8/123/106 58/137/106 65/139/106
f 59/138/107 37/121/107 66/140/107
f 8/123/108 65/139/108 72/141/108
f 8/123/109 72/141/109 79/142/109
f 66/140/110 37/121/110 73/143/110
f 73/143/111 37/121/111 80/144/111
f 8/123/112 79/142/112 86/145/112
f 80/144/113 37/121/113 87/146/113
f 8/123/114 86/145/114 93/147/114
f 87/146/115 37/121/115 94/148/115
f 8/123/116 93/147/116 100/149/116
f 8/123/117 100/149/117 107/150/117
f 94/148/118 37/121/118 101/151/118
f 101/151/119 37/121/119 108/152/119
f 8/123/120 107/150/120 114/153/120
f 114/116/121 113/115/121 6/2/121 7/1/121
f 112/118/122 111/117/122 4/6/122 5/5/122
f 110/119/123 109/114/123 2/10/123 3/9/123
f 108/152/124 37/121/124 1/120/124
f 8/123/125 114/153/125 7/124/125
f 113/115/126 112/118/126 5/5/126 6/2/126
f 111/117/127 110/119/127 3/9/127 4/6/127
f 109/114/128 108/113/128 1/13/128 2/10/128
